<svg width="25" height="25" viewBox="0 0 25 25" fill="none" xmlns="http://www.w3.org/2000/svg">
<g clip-path="url(#clip0_100_103)">
<path fill-rule="evenodd" clip-rule="evenodd" d="M4.84375 17.5C4.91652 17.403 5.01088 17.3242 5.11936 17.27C5.22785 17.2157 5.34747 17.1875 5.46875 17.1875H9.375C9.5822 17.1875 9.78091 17.2698 9.92743 17.4163C10.0739 17.5628 10.1562 17.7615 10.1562 17.9688C10.1562 18.176 10.0739 18.3747 9.92743 18.5212C9.78091 18.6677 9.5822 18.75 9.375 18.75H5.85938L2.34375 23.4375H22.6562L19.1406 18.75H15.625C15.4178 18.75 15.2191 18.6677 15.0726 18.5212C14.9261 18.3747 14.8438 18.176 14.8438 17.9688C14.8438 17.7615 14.9261 17.5628 15.0726 17.4163C15.2191 17.2698 15.4178 17.1875 15.625 17.1875H19.5312C19.6525 17.1875 19.7722 17.2157 19.8806 17.27C19.9891 17.3242 20.0835 17.403 20.1562 17.5L24.8438 23.75C24.9308 23.8661 24.9838 24.0041 24.9968 24.1486C25.0099 24.2931 24.9824 24.4384 24.9175 24.5681C24.8526 24.6979 24.7529 24.807 24.6295 24.8833C24.5061 24.9596 24.3638 25 24.2188 25H0.78125C0.636163 25 0.493942 24.9596 0.370523 24.8833C0.247104 24.807 0.147364 24.6979 0.0824791 24.5681C0.0175941 24.4384 -0.00987251 24.2931 0.00315716 24.1486C0.0161868 24.0041 0.0691979 23.8661 0.15625 23.75L4.84375 17.5Z" fill="#F5F5F5"/>
<path fill-rule="evenodd" clip-rule="evenodd" d="M6.25 6.24991C6.25011 5.04714 6.59728 3.86994 7.24984 2.85958C7.90239 1.84922 8.83263 1.04861 9.92891 0.553826C11.0252 0.0590365 12.241 -0.108916 13.4303 0.0701227C14.6197 0.249161 15.7322 0.767584 16.6342 1.56318C17.5362 2.35879 18.1896 3.39777 18.5158 4.55546C18.842 5.71316 18.8272 6.94038 18.4732 8.08989C18.1192 9.23939 17.4411 10.2623 16.5201 11.036C15.5992 11.8096 14.4746 12.3011 13.2813 12.4515V21.0937C13.2813 21.3009 13.1989 21.4996 13.0524 21.6461C12.9059 21.7926 12.7072 21.8749 12.5 21.8749C12.2928 21.8749 12.0941 21.7926 11.9476 21.6461C11.8011 21.4996 11.7188 21.3009 11.7188 21.0937V12.453C10.2078 12.2627 8.81826 11.5272 7.81127 10.3847C6.80428 9.24215 6.2491 7.77285 6.25 6.24991Z" fill="#F5F5F5"/>
</g>
<defs>
<clipPath id="clip0_100_103">
<rect width="25" height="25" fill="white"/>
</clipPath>
</defs>
</svg>
