<svg id="visual" viewBox="0 0 1920 750" width="1920" height="750" xmlns="http://www.w3.org/2000/svg" xmlns:xlink="http://www.w3.org/1999/xlink" version="1.1"><rect x="0" y="0" width="1920" height="750" fill="#faffff"></rect><path d="M0 369L45.7 367.8C91.3 366.7 182.7 364.3 274.2 369C365.7 373.7 457.3 385.3 548.8 381.7C640.3 378 731.7 359 823 357.5C914.3 356 1005.7 372 1097 379.5C1188.3 387 1279.7 386 1371.2 383.7C1462.7 381.3 1554.3 377.7 1645.8 380.8C1737.3 384 1828.7 394 1874.3 399L1920 404L1920 751L1874.3 751C1828.7 751 1737.3 751 1645.8 751C1554.3 751 1462.7 751 1371.2 751C1279.7 751 1188.3 751 1097 751C1005.7 751 914.3 751 823 751C731.7 751 640.3 751 548.8 751C457.3 751 365.7 751 274.2 751C182.7 751 91.3 751 45.7 751L0 751Z" fill="#453e3d" stroke-linecap="round" stroke-linejoin="miter"></path></svg>