<svg id="visual" viewBox="0 0 1920 960" width="1920" height="960" xmlns="http://www.w3.org/2000/svg" xmlns:xlink="http://www.w3.org/1999/xlink" version="1.1"><rect x="0" y="0" width="1920" height="960" fill="#faffff"></rect><path d="M0 473L45.7 471.3C91.3 469.7 182.7 466.3 274.2 472.3C365.7 478.3 457.3 493.7 548.8 489.2C640.3 484.7 731.7 460.3 823 458.3C914.3 456.3 1005.7 476.7 1097 486.2C1188.3 495.7 1279.7 494.3 1371.2 491.3C1462.7 488.3 1554.3 483.7 1645.8 487.8C1737.3 492 1828.7 505 1874.3 511.5L1920 518L1920 961L1874.3 961C1828.7 961 1737.3 961 1645.8 961C1554.3 961 1462.7 961 1371.2 961C1279.7 961 1188.3 961 1097 961C1005.7 961 914.3 961 823 961C731.7 961 640.3 961 548.8 961C457.3 961 365.7 961 274.2 961C182.7 961 91.3 961 45.7 961L0 961Z" fill="#453e3d" stroke-linecap="round" stroke-linejoin="miter"></path></svg>