<svg id="visual" viewBox="0 0 600 1020" width="600" height="1020" xmlns="http://www.w3.org/2000/svg" xmlns:xlink="http://www.w3.org/1999/xlink" version="1.1"><rect x="0" y="0" width="600" height="1020" fill="#faffff"></rect><path d="M0 502L14.3 500.3C28.7 498.7 57.3 495.3 85.8 501.8C114.3 508.3 142.7 524.7 171.2 519.8C199.7 515 228.3 489 257 487C285.7 485 314.3 507 343 517.2C371.7 527.3 400.3 525.7 428.8 522.3C457.3 519 485.7 514 514.2 518.3C542.7 522.7 571.3 536.3 585.7 543.2L600 550L600 1021L585.7 1021C571.3 1021 542.7 1021 514.2 1021C485.7 1021 457.3 1021 428.8 1021C400.3 1021 371.7 1021 343 1021C314.3 1021 285.7 1021 257 1021C228.3 1021 199.7 1021 171.2 1021C142.7 1021 114.3 1021 85.8 1021C57.3 1021 28.7 1021 14.3 1021L0 1021Z" fill="#453e3d" stroke-linecap="round" stroke-linejoin="miter"></path></svg>